<svg xmlns="http://www.w3.org/2000/svg" xmlns:svg="http://www.w3.org/2000/svg" xmlns:xlink="http://www.w3.org/1999/xlink" id="svg8" width="48" height="48" version="1.1" viewBox="0 0 12.7 12.7"><defs id="defs2"><linearGradient id="linearGradient848"><stop id="stop844" offset="0" style="stop-color:#88e7cd;stop-opacity:1"/><stop id="stop846" offset="1" style="stop-color:#88e7cd;stop-opacity:0"/></linearGradient><linearGradient id="linearGradient850" x1="9.708" x2="6.35" y1="3.026" y2="6.35" gradientUnits="userSpaceOnUse" xlink:href="#linearGradient848"/></defs><metadata id="metadata5"/><g id="layer1"><path id="path833" d="M 11.074702,6.3499999 A 4.7247024,4.7247024 0 0 1 6.3499999,11.074702 4.7247024,4.7247024 0 0 1 1.6252975,6.3499999 4.7247024,4.7247024 0 0 1 6.3499999,1.6252975 4.7247024,4.7247024 0 0 1 11.074702,6.3499999 Z" style="fill:#23ae87;fill-opacity:1;stroke:none;stroke-width:.765;stroke-linecap:round;stroke-linejoin:round;stroke-miterlimit:4;stroke-dasharray:none;stroke-opacity:1"/><path d="M 9.7076995,3.0260466 A 4.7247024,4.7247024 0 0 1 9.8531236,9.5203211 L 6.3499999,6.3499999 Z" style="fill:url(#linearGradient850);fill-opacity:1;stroke:none;stroke-width:.765;stroke-linecap:round;stroke-linejoin:round;stroke-miterlimit:4;stroke-dasharray:none;stroke-opacity:1" id="circle835"/><circle style="fill:none;stroke-width:.765;stroke-linecap:round;stroke-linejoin:round;stroke:none;stroke-miterlimit:4;stroke-dasharray:none;stroke-opacity:1;fill-opacity:1" id="circle837" cx="6.35" cy="6.35" r="4.725"/><path id="path852" d="M 6.3499999,6.3499999 9.7076994,3.0260467" style="fill:#0f0;stroke:#93ffc9;stroke-width:.264583px;stroke-linecap:butt;stroke-linejoin:miter;stroke-opacity:1"/><path style="fill:none;fill-opacity:1;stroke:#007033;stroke-width:.765;stroke-linecap:round;stroke-linejoin:round;stroke-miterlimit:4;stroke-dasharray:none;stroke-opacity:1" id="path842" d="M 11.074702,6.3499999 A 4.7247024,4.7247024 0 0 1 6.3499999,11.074702 4.7247024,4.7247024 0 0 1 1.6252975,6.3499999 4.7247024,4.7247024 0 0 1 6.3499999,1.6252975 4.7247024,4.7247024 0 0 1 11.074702,6.3499999 Z"/><circle id="path839" cx="8.801" cy="5.309" r=".462" style="fill:#93ffc9;fill-opacity:1;stroke:none;stroke-width:.38708;stroke-linecap:round;stroke-linejoin:round"/><circle style="fill:#57c78f;fill-opacity:1;stroke:none;stroke-width:.38708;stroke-linecap:round;stroke-linejoin:round" id="circle841" cx="8.272" cy="7.955" r=".462"/><circle id="circle843" cx="8.272" cy="9.342" r=".462" style="fill:#43c082;fill-opacity:1;stroke:none;stroke-width:.38708;stroke-linecap:round;stroke-linejoin:round"/></g></svg>